<mxfile host="app.diagrams.net" modified="2022-02-27T11:20:54.185Z" agent="5.0 (Windows NT 10.0; Win64; x64) AppleWebKit/537.36 (KHTML, like Gecko) Chrome/98.0.4758.102 Safari/537.36" etag="jNtHy4t7TBwcq6FO9t-1" version="16.6.1" type="github">
  <diagram id="C5RBs43oDa-KdzZeNtuy" name="Page-1">
    <mxGraphModel dx="1284" dy="1069" grid="1" gridSize="10" guides="1" tooltips="1" connect="1" arrows="1" fold="1" page="1" pageScale="1" pageWidth="827" pageHeight="1169" math="0" shadow="0">
      <root>
        <mxCell id="WIyWlLk6GJQsqaUBKTNV-0" />
        <mxCell id="WIyWlLk6GJQsqaUBKTNV-1" parent="WIyWlLk6GJQsqaUBKTNV-0" />
        <mxCell id="WIyWlLk6GJQsqaUBKTNV-2" value="" style="rounded=0;html=1;jettySize=auto;orthogonalLoop=1;fontSize=11;endArrow=block;endFill=0;endSize=8;strokeWidth=1;shadow=0;labelBackgroundColor=none;edgeStyle=orthogonalEdgeStyle;" parent="WIyWlLk6GJQsqaUBKTNV-1" source="WIyWlLk6GJQsqaUBKTNV-3" target="motN-pjYrAVgqWFfn6yh-4" edge="1">
          <mxGeometry relative="1" as="geometry">
            <mxPoint x="220" y="180" as="targetPoint" />
          </mxGeometry>
        </mxCell>
        <mxCell id="WIyWlLk6GJQsqaUBKTNV-3" value="Inicio" style="rounded=1;whiteSpace=wrap;html=1;fontSize=12;glass=0;strokeWidth=1;shadow=0;" parent="WIyWlLk6GJQsqaUBKTNV-1" vertex="1">
          <mxGeometry x="160" y="80" width="120" height="40" as="geometry" />
        </mxCell>
        <mxCell id="WIyWlLk6GJQsqaUBKTNV-11" value="Fin" style="rounded=1;whiteSpace=wrap;html=1;fontSize=12;glass=0;strokeWidth=1;shadow=0;" parent="WIyWlLk6GJQsqaUBKTNV-1" vertex="1">
          <mxGeometry x="160" y="960" width="120" height="40" as="geometry" />
        </mxCell>
        <mxCell id="motN-pjYrAVgqWFfn6yh-4" value="&lt;span&gt;Escribir: &quot;Introduzca el número de valores cuyo promedio desea calcular&quot;&lt;/span&gt;" style="shape=parallelogram;perimeter=parallelogramPerimeter;whiteSpace=wrap;html=1;fixedSize=1;" vertex="1" parent="WIyWlLk6GJQsqaUBKTNV-1">
          <mxGeometry x="135" y="170" width="170" height="60" as="geometry" />
        </mxCell>
        <mxCell id="motN-pjYrAVgqWFfn6yh-5" value="Poner el valor introducido en la variable numValores" style="rounded=0;whiteSpace=wrap;html=1;" vertex="1" parent="WIyWlLk6GJQsqaUBKTNV-1">
          <mxGeometry x="160" y="280" width="130" height="60" as="geometry" />
        </mxCell>
        <mxCell id="motN-pjYrAVgqWFfn6yh-8" value="" style="rounded=0;html=1;jettySize=auto;orthogonalLoop=1;fontSize=11;endArrow=block;endFill=0;endSize=8;strokeWidth=1;shadow=0;labelBackgroundColor=none;edgeStyle=orthogonalEdgeStyle;exitX=0.5;exitY=1;exitDx=0;exitDy=0;entryX=0.469;entryY=-0.038;entryDx=0;entryDy=0;entryPerimeter=0;" edge="1" parent="WIyWlLk6GJQsqaUBKTNV-1" source="motN-pjYrAVgqWFfn6yh-4" target="motN-pjYrAVgqWFfn6yh-5">
          <mxGeometry relative="1" as="geometry">
            <mxPoint x="330" y="240" as="sourcePoint" />
            <mxPoint x="330" y="290" as="targetPoint" />
          </mxGeometry>
        </mxCell>
        <mxCell id="motN-pjYrAVgqWFfn6yh-9" value="Escribir: &quot;Introduzca valor: &quot;" style="shape=parallelogram;perimeter=parallelogramPerimeter;whiteSpace=wrap;html=1;fixedSize=1;" vertex="1" parent="WIyWlLk6GJQsqaUBKTNV-1">
          <mxGeometry x="155" y="410" width="130" height="60" as="geometry" />
        </mxCell>
        <mxCell id="motN-pjYrAVgqWFfn6yh-10" value="" style="rounded=0;html=1;jettySize=auto;orthogonalLoop=1;fontSize=11;endArrow=block;endFill=0;endSize=8;strokeWidth=1;shadow=0;labelBackgroundColor=none;edgeStyle=orthogonalEdgeStyle;entryX=0.539;entryY=0.022;entryDx=0;entryDy=0;entryPerimeter=0;exitX=0.5;exitY=1;exitDx=0;exitDy=0;" edge="1" parent="WIyWlLk6GJQsqaUBKTNV-1" source="motN-pjYrAVgqWFfn6yh-5" target="motN-pjYrAVgqWFfn6yh-9">
          <mxGeometry relative="1" as="geometry">
            <mxPoint x="215" y="380" as="sourcePoint" />
            <mxPoint x="260" y="210" as="targetPoint" />
          </mxGeometry>
        </mxCell>
        <mxCell id="motN-pjYrAVgqWFfn6yh-11" value="Añadir el valor a listaNotas" style="rounded=0;whiteSpace=wrap;html=1;" vertex="1" parent="WIyWlLk6GJQsqaUBKTNV-1">
          <mxGeometry x="160" y="510" width="120" height="60" as="geometry" />
        </mxCell>
        <mxCell id="motN-pjYrAVgqWFfn6yh-16" value="" style="rounded=0;html=1;jettySize=auto;orthogonalLoop=1;fontSize=11;endArrow=block;endFill=0;endSize=8;strokeWidth=1;shadow=0;labelBackgroundColor=none;edgeStyle=orthogonalEdgeStyle;exitX=0.5;exitY=1;exitDx=0;exitDy=0;entryX=0.5;entryY=0;entryDx=0;entryDy=0;" edge="1" parent="WIyWlLk6GJQsqaUBKTNV-1" source="motN-pjYrAVgqWFfn6yh-9" target="motN-pjYrAVgqWFfn6yh-11">
          <mxGeometry relative="1" as="geometry">
            <mxPoint x="360" y="479.9999999999999" as="sourcePoint" />
            <mxPoint x="250" y="511" as="targetPoint" />
          </mxGeometry>
        </mxCell>
        <mxCell id="motN-pjYrAVgqWFfn6yh-17" value="¿i&amp;lt; numValores?" style="rhombus;whiteSpace=wrap;html=1;" vertex="1" parent="WIyWlLk6GJQsqaUBKTNV-1">
          <mxGeometry x="173.75" y="600" width="92.5" height="95" as="geometry" />
        </mxCell>
        <mxCell id="motN-pjYrAVgqWFfn6yh-18" value="" style="rounded=0;html=1;jettySize=auto;orthogonalLoop=1;fontSize=11;endArrow=block;endFill=0;endSize=8;strokeWidth=1;shadow=0;labelBackgroundColor=none;edgeStyle=orthogonalEdgeStyle;exitX=0.5;exitY=1;exitDx=0;exitDy=0;entryX=0.5;entryY=0;entryDx=0;entryDy=0;" edge="1" parent="WIyWlLk6GJQsqaUBKTNV-1" source="motN-pjYrAVgqWFfn6yh-11" target="motN-pjYrAVgqWFfn6yh-17">
          <mxGeometry relative="1" as="geometry">
            <mxPoint x="330" y="584.9999999999999" as="sourcePoint" />
            <mxPoint x="220" y="600" as="targetPoint" />
          </mxGeometry>
        </mxCell>
        <mxCell id="motN-pjYrAVgqWFfn6yh-19" value="" style="rounded=0;html=1;jettySize=auto;orthogonalLoop=1;fontSize=11;endArrow=block;endFill=0;endSize=8;strokeWidth=1;shadow=0;labelBackgroundColor=none;edgeStyle=orthogonalEdgeStyle;exitX=1;exitY=0.5;exitDx=0;exitDy=0;entryX=1;entryY=0.5;entryDx=0;entryDy=0;" edge="1" parent="WIyWlLk6GJQsqaUBKTNV-1" source="motN-pjYrAVgqWFfn6yh-17" target="motN-pjYrAVgqWFfn6yh-9">
          <mxGeometry relative="1" as="geometry">
            <mxPoint x="255" y="369.9999999999999" as="sourcePoint" />
            <mxPoint x="340" y="440" as="targetPoint" />
            <Array as="points">
              <mxPoint x="350" y="648" />
              <mxPoint x="350" y="440" />
            </Array>
          </mxGeometry>
        </mxCell>
        <mxCell id="motN-pjYrAVgqWFfn6yh-20" value="True" style="edgeLabel;html=1;align=center;verticalAlign=middle;resizable=0;points=[];" vertex="1" connectable="0" parent="motN-pjYrAVgqWFfn6yh-19">
          <mxGeometry x="-0.9318" y="2" relative="1" as="geometry">
            <mxPoint x="1" y="-5" as="offset" />
          </mxGeometry>
        </mxCell>
        <mxCell id="motN-pjYrAVgqWFfn6yh-21" value="Recorrer la lista y calcular la suma de los valores" style="rounded=0;whiteSpace=wrap;html=1;" vertex="1" parent="WIyWlLk6GJQsqaUBKTNV-1">
          <mxGeometry x="162.5" y="730" width="115" height="50" as="geometry" />
        </mxCell>
        <mxCell id="motN-pjYrAVgqWFfn6yh-22" value="False" style="rounded=0;html=1;jettySize=auto;orthogonalLoop=1;fontSize=11;endArrow=block;endFill=0;endSize=8;strokeWidth=1;shadow=0;labelBackgroundColor=none;edgeStyle=orthogonalEdgeStyle;exitX=0.5;exitY=1;exitDx=0;exitDy=0;entryX=0.5;entryY=0;entryDx=0;entryDy=0;" edge="1" parent="WIyWlLk6GJQsqaUBKTNV-1" source="motN-pjYrAVgqWFfn6yh-17" target="motN-pjYrAVgqWFfn6yh-21">
          <mxGeometry x="-0.323" y="25" relative="1" as="geometry">
            <mxPoint x="340" y="694.9999999999999" as="sourcePoint" />
            <mxPoint x="500" y="730" as="targetPoint" />
            <mxPoint as="offset" />
          </mxGeometry>
        </mxCell>
        <mxCell id="motN-pjYrAVgqWFfn6yh-24" value="Escribir en pantalla: &quot;La nota media es: &quot; y la división entre la sumaTotal y numValores" style="shape=parallelogram;perimeter=parallelogramPerimeter;whiteSpace=wrap;html=1;fixedSize=1;" vertex="1" parent="WIyWlLk6GJQsqaUBKTNV-1">
          <mxGeometry x="130" y="830" width="180" height="80" as="geometry" />
        </mxCell>
        <mxCell id="motN-pjYrAVgqWFfn6yh-25" value="" style="rounded=0;html=1;jettySize=auto;orthogonalLoop=1;fontSize=11;endArrow=block;endFill=0;endSize=8;strokeWidth=1;shadow=0;labelBackgroundColor=none;edgeStyle=orthogonalEdgeStyle;entryX=0.5;entryY=0;entryDx=0;entryDy=0;exitX=0.5;exitY=1;exitDx=0;exitDy=0;" edge="1" parent="WIyWlLk6GJQsqaUBKTNV-1" source="motN-pjYrAVgqWFfn6yh-21" target="motN-pjYrAVgqWFfn6yh-24">
          <mxGeometry relative="1" as="geometry">
            <mxPoint x="350" y="799.9999999999999" as="sourcePoint" />
            <mxPoint x="350.07000000000005" y="871.32" as="targetPoint" />
          </mxGeometry>
        </mxCell>
        <mxCell id="motN-pjYrAVgqWFfn6yh-26" value="" style="rounded=0;html=1;jettySize=auto;orthogonalLoop=1;fontSize=11;endArrow=block;endFill=0;endSize=8;strokeWidth=1;shadow=0;labelBackgroundColor=none;edgeStyle=orthogonalEdgeStyle;entryX=0.5;entryY=0;entryDx=0;entryDy=0;exitX=0.5;exitY=1;exitDx=0;exitDy=0;" edge="1" parent="WIyWlLk6GJQsqaUBKTNV-1" source="motN-pjYrAVgqWFfn6yh-24" target="WIyWlLk6GJQsqaUBKTNV-11">
          <mxGeometry relative="1" as="geometry">
            <mxPoint x="350" y="949.9999999999999" as="sourcePoint" />
            <mxPoint x="350.07000000000005" y="1021.32" as="targetPoint" />
          </mxGeometry>
        </mxCell>
      </root>
    </mxGraphModel>
  </diagram>
</mxfile>
